P2
64 64
255
10 0 10 0 0 0 12 18 0 13 0 19 0 1 52 19 5 1 0 11 0 0 9 12 5 36 8 27 3 34 0 0 0 0 0 7 0 0 11 0 21 0 0 50 3 37 20 0 0 0 0 22 0 12 18 0 30 23 26 0 0 0 0 0
0 5 0 0 0 10 0 0 0 0 0 0 26 30 0 0 0 0 0 48 33 0 37 0 0 38 0 8 7 0 65 0 27 17 0 0 0 0 0 0 19 0 0 25 9 2 67 11 0 17 0 6 11 0 0 29 5 0 13 33 0 0 0 0
0 0 0 0 31 13 0 0 0 16 0 17 0 33 32 0 0 4 0 0 11 41 17 0 5 0 20 43 29 6 17 0 15 0 0 5 0 65 15 0 13 7 28 1 34 0 1 0 0 8 53 41 0 8 68 0 0 5 21 0 0 0 42 0
0 0 0 12 0 14 21 23 8 0 0 0 0 32 0 0 10 67 20 8 19 13 16 6 8 0 36 0 25 0 0 0 17 1 27 27 14 12 0 0 0 15 0 0 0 0 0 6 0 42 0 16 0 0 9 0 0 0 0 0 0 5 20 0
6 0 0 0 27 0 0 0 0 0 13 0 0 16 0 0 0 25 15 0 28 1 0 0 57 27 0 4 14 0 0 0 0 0 0 0 0 39 0 5 0 0 12 2 0 8 0 28 23 0 0 0 11 24 0 0 0 0 0 19 4 10 23 0
49 0 0 22 14 0 0 18 28 5 0 0 0 18 0 45 35 14 21 0 0 0 0 13 0 12 31 0 11 3 42 0 18 3 9 15 11 14 0 0 0 29 25 0 20 0 0 5 0 34 39 0 12 0 11 0 2 11 11 2 9 0 5 0
0 0 0 35 0 40 0 0 8 18 32 24 5 0 23 0 0 20 11 0 0 28 7 0 0 35 0 0 0 0 0 0 0 45 19 0 0 29 53 12 29 5 48 2 0 52 12 31 25 20 0 0 0 22 2 0 0 0 0 0 0 0 19 42
9 0 23 0 36 0 32 32 0 13 0 0 0 0 0 0 0 9 0 0 0 0 23 0 16 0 0 0 0 0 0 13 33 0 0 27 11 4 18 0 0 0 26 29 12 0 0 8 0 0 0 0 34 0 0 5 1 13 0 0 30 2 0 25
0 0 8 10 0 74 29 0 4 0 26 19 12 6 0 0 0 5 14 16 4 0 0 18 4 0 0 0 0 33 0 21 44 0 13 38 9 5 0 50 0 0 37 0 4 0 62 0 0 0 19 24 0 0 0 62 0 0 0 32 12 0 0 0
0 5 0 0 0 14 25 13 0 0 0 25 14 31 9 0 0 0 0 0 22 5 0 0 10 0 20 0 0 0 0 35 0 8 14 0 0 3 0 0 0 5 7 23 0 8 23 9 11 11 0 0 0 0 17 7 0 0 0 14 11 12 0 0
2 8 35 27 15 36 0 0 0 0 0 0 0 0 5 13 0 0 0 0 5 0 0 0 51 0 4 0 0 76 10 0 17 0 19 0 0 0 52 0 6 0 0 1 0 7 0 0 0 0 0 0 0 41 8 22 32 9 28 36 0 0 0 5
0 0 0 27 7 0 4 0 0 28 9 0 20 7 15 0 0 8 0 10 0 24 42 0 0 30 0 0 10 24 0 10 26 40 0 0 31 0 0 36 6 6 0 0 31 0 0 12 15 0 33 0 0 0 7 0 0 50 14 0 0 0 0 0
23 0 9 0 9 0 0 5 0 0 0 0 0 0 34 12 30 0 0 2 0 0 0 0 0 0 0 8 16 0 18 0 0 26 0 0 0 1 8 0 0 5 0 9 6 12 7 15 0 0 42 0 50 12 0 0 0 0 7 0 4 0 33 12
0 0 19 0 33 52 10 0 0 13 18 15 21 1 25 1 0 0 7 0 0 33 34 0 0 25 18 0 0 25 0 18 6 0 25 32 0 19 6 0 0 17 0 0 0 0 27 0 38 1 28 0 21 43 3 0 0 0 19 19 0 18 0 35
0 38 0 0 0 0 0 0 17 0 0 14 35 0 30 0 5 3 1 9 35 0 32 32 17 7 6 0 3 9 7 29 0 0 8 23 0 28 0 9 21 0 26 6 39 0 0 0 27 0 13 2 23 24 0 0 0 0 4 0 37 18 0 0
0 0 0 0 18 0 0 22 5 3 3 61 0 0 3 10 26 0 5 0 9 17 28 0 54 0 0 11 0 0 0 17 40 6 33 0 31 0 0 25 0 16 0 0 36 0 16 29 4 0 49 0 0 0 28 33 9 21 33 0 0 0 1 0
13 11 1 0 10 0 30 26 24 0 24 0 0 0 19 0 34 0 0 9 0 0 17 37 0 0 0 3 17 21 0 0 0 19 36 0 0 16 0 17 0 22 3 3 0 14 10 0 0 0 32 10 36 0 0 0 66 0 13 48 0 0 0 0
22 3 20 0 24 0 15 20 0 0 0 0 21 0 10 21 0 9 0 0 0 0 0 0 23 31 0 0 20 7 0 17 0 0 20 20 0 26 9 52 7 0 0 32 0 0 21 30 20 0 0 0 0 8 0 4 0 0 0 14 0 0 24 45
7 37 0 31 59 0 33 0 0 0 0 5 4 0 11 25 41 0 7 0 28 0 55 0 39 0 0 0 0 0 0 0 0 0 0 0 0 0 0 0 0 0 11 6 0 0 46 20 8 0 29 18 47 9 0 3 0 0 14 8 0 0 4 51
10 0 0 0 27 0 0 0 16 57 0 0 0 0 44 13 6 8 19 0 0 0 0 0 28 0 0 20 0 32 0 0 19 0 0 0 18 0 5 5 24 0 0 0 11 23 0 27 41 2 17 26 67 0 42 0 12 22 31 11 37 0 8 17
0 0 14 0 17 0 0 4 0 0 0 30 12 7 0 1 74 11 2 0 252 225 233 255 235 255 255 255 251 255 255 255 255 252 255 255 248 255 255 237 229 255 221 230 32 17 0 0 0 0 17 41 0 37 0 0 0 0 8 0 1 0 0 0
14 0 0 0 25 17 18 0 5 2 62 32 16 0 0 0 0 17 26 40 254 255 219 216 255 223 255 254 247 255 255 234 255 255 255 232 255 255 253 255 255 255 224 227 0 8 15 0 11 0 26 0 0 0 21 40 20 13 33 0 40 0 0 28
5 0 0 0 36 0 24 39 24 0 33 25 0 7 18 0 0 0 4 2 255 246 232 255 255 243 253 248 222 255 238 244 255 238 244 255 236 240 209 255 237 253 255 255 33 0 0 0 51 32 10 0 5 28 8 0 14 6 0 0 0 37 8 41
0 16 18 2 0 0 38 15 0 0 17 6 0 0 16 0 5 0 13 0 255 255 255 227 245 255 255 255 244 255 255 239 255 246 236 255 239 239 255 245 254 255 255 255 0 0 0 21 0 0 0 0 0 8 0 0 3 26 0 19 0 0 0 9
0 0 0 5 11 31 14 1 12 0 6 4 11 36 33 0 0 0 19 15 255 238 246 243 242 244 255 255 255 255 237 241 220 242 220 255 221 255 255 255 238 255 233 248 0 0 0 8 0 0 0 0 0 0 0 4 24 44 31 0 0 3 9 24
0 27 0 17 43 0 8 0 39 0 0 14 0 21 0 44 29 0 0 8 189 230 224 255 235 255 255 251 205 255 223 255 236 255 255 250 255 245 233 236 211 253 255 248 0 0 0 0 0 0 14 19 23 20 0 0 28 0 0 0 19 0 8 0
23 0 2 36 13 35 0 12 2 19 33 0 23 10 1 0 0 0 15 30 230 248 255 255 255 219 255 219 240 235 202 233 255 249 243 255 241 227 255 255 223 242 216 235 0 0 0 14 0 40 0 14 0 0 0 25 0 0 0 28 0 20 0 0
0 10 0 28 0 0 25 5 49 0 0 0 29 19 0 3 0 5 16 0 242 247 239 227 255 255 255 211 255 255 255 255 255 204 255 255 255 233 234 255 232 244 247 238 0 0 3 0 33 14 47 0 6 0 0 35 9 0 0 0 0 0 0 9
0 5 0 0 40 4 33 0 0 0 16 0 20 0 0 43 0 8 0 37 255 255 255 229 255 255 192 255 247 253 255 244 255 238 243 254 219 255 244 255 211 255 255 245 9 29 33 1 0 0 45 0 0 0 7 42 0 0 30 11 18 21 22 8
0 0 34 1 0 6 0 39 0 20 0 8 24 24 21 4 2 10 0 15 219 250 255 255 255 255 226 250 234 255 255 225 225 248 255 235 255 255 255 255 253 247 255 255 3 0 9 9 0 0 0 0 0 5 24 0 0 0 24 40 0 0 17 0
0 16 0 8 9 4 2 0 0 7 0 0 12 23 42 0 32 0 0 0 255 245 218 250 221 255 207 255 255 240 244 255 255 251 252 219 255 249 216 255 255 249 249 255 0 29 0 44 0 24 0 0 5 29 0 0 26 0 0 4 10 2 0 0
0 0 5 0 0 0 4 0 0 0 29 9 26 40 0 18 4 0 0 9 255 247 255 255 250 229 226 222 244 255 228 255 255 255 255 255 246 255 255 216 255 247 236 251 21 0 17 0 25 48 0 24 1 0 34 0 20 0 37 0 53 0 8 19
25 0 11 0 16 31 0 13 32 0 24 3 38 0 17 44 0 22 1 12 254 249 255 241 229 255 255 232 255 255 241 255 224 255 242 255 238 230 255 255 228 250 230 255 28 0 17 0 7 22 22 1 0 11 17 14 26 0 0 4 96 43 0 0
0 0 0 10 0 33 57 13 5 3 0 55 0 20 0 0 21 0 4 4 246 255 255 255 252 255 242 255 255 234 228 255 255 249 253 255 224 255 255 230 212 255 255 255 0 36 0 0 26 8 6 0 0 0 2 0 15 24 11 0 1 0 0 4
0 0 0 0 0 13 0 17 7 12 0 24 0 0 8 22 19 0 0 19 222 255 232 255 237 223 255 255 218 255 255 255 255 255 251 247 255 255 255 254 255 255 255 229 14 28 0 9 13 1 0 0 0 0 39 19 33 0 0 0 27 43 6 0
0 9 36 1 0 0 0 16 4 15 0 5 3 11 3 0 14 17 0 13 244 214 255 250 255 247 255 255 237 200 255 246 246 255 255 252 227 255 246 255 235 255 233 255 0 0 0 6 0 0 4 0 14 0 0 12 17 14 24 13 17 0 61 6
3 32 0 0 21 37 48 14 23 0 28 0 32 0 21 18 48 0 23 7 233 255 251 255 255 255 255 255 255 255 255 226 250 210 236 255 236 219 255 255 255 254 255 231 14 0 15 0 35 15 0 0 34 0 0 0 0 0 0 53 0 0 0 4
12 11 0 0 31 0 16 41 13 0 0 8 19 1 0 0 8 1 0 18 254 250 255 228 247 255 237 254 255 228 255 255 255 245 255 205 239 255 255 255 242 247 252 255 18 3 0 0 32 0 0 0 37 7 10 48 17 0 0 11 18 0 0 15
45 0 20 0 4 7 0 7 4 24 1 24 0 0 0 41 11 0 15 12 255 255 255 255 231 255 238 255 255 233 243 244 238 255 244 255 255 219 237 255 212 255 255 219 0 54 0 0 0 0 12 29 33 3 6 29 0 14 0 6 0 0 0 0
0 0 11 0 31 0 0 0 1 9 22 0 2 0 0 46 0 0 0 0 199 206 237 249 226 219 255 243 255 240 237 218 224 207 212 255 223 241 255 247 221 223 232 255 18 0 33 33 56 6 0 45 16 0 26 56 13 0 31 38 13 4 68 20
15 13 23 0 25 40 15 0 0 0 0 17 0 0 45 13 0 0 20 0 255 250 235 255 240 255 255 224 252 255 251 255 255 229 255 249 232 255 248 255 225 210 228 255 16 0 14 0 14 8 0 46 9 36 11 6 1 0 54 0 38 0 0 0
0 8 0 0 0 12 41 11 1 50 0 22 1 0 0 0 15 0 0 0 255 222 255 255 255 217 255 255 247 255 253 239 255 255 253 238 255 255 236 226 253 255 245 220 4 0 24 0 62 0 7 0 0 0 17 0 0 0 5 0 0 0 25 0
17 14 0 0 4 0 12 42 0 0 0 0 6 37 12 7 0 0 9 6 245 230 255 255 253 236 255 235 255 255 246 254 255 255 255 255 255 255 255 219 247 248 255 237 17 10 6 12 0 9 2 0 0 0 1 0 60 4 0 0 0 20 2 12
17 14 0 0 11 19 5 6 0 0 0 0 12 0 33 0 8 0 18 18 239 255 255 255 255 254 230 255 244 255 238 255 236 241 255 248 255 241 255 251 255 255 222 244 0 9 0 5 0 17 0 3 0 2 0 12 7 7 0 0 0 47 0 0
0 0 62 13 6 2 22 0 1 0 0 0 15 0 13 8 1 54 4 0 0 0 14 0 0 0 0 24 15 0 0 4 0 0 13 37 0 4 32 0 0 0 0 2 0 0 12 0 0 25 0 16 55 9 1 18 0 0 0 8 0 38 0 55
0 0 0 0 0 0 0 30 39 36 0 0 41 0 0 0 8 35 0 0 8 14 0 0 49 6 10 42 28 0 0 0 41 21 24 6 0 62 11 0 0 15 1 18 3 23 0 2 0 36 8 39 50 33 0 0 30 0 0 0 35 0 0 16
0 0 4 0 0 0 33 0 0 28 0 1 57 31 27 0 0 0 1 0 0 0 0 29 0 32 34 28 1 0 1 34 11 36 0 0 0 0 4 13 0 8 0 13 9 0 24 23 27 0 14 11 0 3 31 30 27 0 0 0 0 38 0 17
21 28 0 0 0 0 0 10 9 0 31 31 0 0 0 1 0 0 19 0 0 9 0 11 23 3 30 32 0 17 32 0 55 8 0 0 27 0 0 8 0 0 0 0 21 19 0 0 3 0 0 0 0 17 1 0 27 55 0 0 22 0 34 4
0 17 3 25 21 0 0 34 0 17 4 62 0 0 10 19 0 0 0 0 7 0 15 0 4 21 11 0 5 18 0 0 0 0 0 23 53 6 0 35 1 5 0 16 0 0 0 12 35 0 0 1 1 0 0 0 57 2 37 2 27 0 0 36
6 0 0 55 2 37 11 0 21 4 8 23 0 0 1 0 26 0 20 10 2 0 8 0 0 0 3 4 33 0 9 0 6 24 0 0 0 15 10 10 4 0 0 0 0 3 7 0 11 15 0 17 41 30 30 14 0 0 8 0 0 1 0 39
26 0 9 12 37 0 0 0 36 0 0 0 0 0 0 25 7 26 16 27 12 0 0 15 21 28 14 19 15 0 14 24 20 26 13 0 0 36 0 49 35 14 12 25 43 0 35 14 0 0 0 0 16 47 0 0 0 0 6 40 29 0 3 0
43 15 0 15 3 0 70 0 0 0 0 28 44 6 0 0 0 0 47 29 6 0 30 0 28 0 0 0 0 0 25 22 0 24 19 36 26 10 37 0 1 0 0 31 0 0 48 41 8 9 17 13 0 1 32 0 25 0 21 45 2 13 0 0
3 16 23 5 0 6 3 103 37 13 16 0 5 26 0 21 5 5 1 13 0 0 0 0 4 41 0 0 0 8 0 76 2 0 0 0 0 40 0 0 14 0 31 16 0 11 0 0 31 20 16 13 13 45 0 0 0 8 6 0 0 3 0 0
0 14 3 0 34 0 26 41 24 4 0 0 5 20 0 1 6 18 0 14 0 0 0 18 38 3 0 0 16 0 10 0 0 0 23 43 10 17 0 0 25 12 20 3 11 51 53 0 0 0 5 0 0 0 3 54 23 10 0 0 0 19 0 5
0 36 0 9 0 0 36 8 29 64 24 0 0 38 43 0 33 25 16 0 0 14 53 0 14 2 0 23 0 0 44 1 0 13 0 0 0 22 6 17 0 28 0 2 5 0 9 0 31 33 3 0 10 35 23 3 0 0 0 8 4 0 0 0
0 0 0 0 0 11 0 0 0 0 0 7 0 0 21 0 2 18 0 0 10 0 0 0 52 0 42 0 0 16 0 0 0 12 9 0 3 7 8 0 0 0 0 0 0 0 44 0 46 51 0 0 0 1 17 0 49 0 19 0 0 0 26 37
0 17 0 0 0 49 14 38 4 44 13 21 0 0 0 24 38 0 0 0 0 0 25 0 0 4 4 1 0 0 0 0 16 0 0 0 0 7 0 3 17 0 18 0 52 11 3 0 0 31 0 7 0 0 26 0 27 0 0 0 0 33 17 0
0 40 0 0 0 5 0 0 0 41 0 28 0 0 0 0 0 0 0 12 0 0 17 11 0 0 0 1 0 10 0 7 0 0 0 38 0 38 0 24 16 34 6 16 2 6 0 18 33 0 36 0 27 3 0 19 0 9 23 0 2 0 0 0
4 19 0 0 44 0 0 0 0 15 4 13 2 33 0 16 2 0 0 4 0 0 0 0 29 0 0 0 0 14 18 11 0 0 8 0 0 3 18 36 0 55 0 0 0 13 0 22 0 6 70 11 44 0 0 0 0 0 0 7 0 18 50 0
18 0 0 0 0 0 0 16 7 47 0 26 7 6 12 15 0 7 3 0 0 28 24 0 15 0 0 0 7 0 0 0 0 7 0 61 16 0 0 0 17 0 0 0 0 0 15 15 0 0 27 10 31 1 33 27 21 35 0 0 0 0 7 71
0 0 44 42 0 11 0 15 0 25 0 7 2 6 24 2 0 0 43 40 0 28 9 0 1 3 39 3 0 0 53 0 22 2 0 0 8 2 0 0 31 0 0 33 22 38 35 0 13 0 0 0 0 0 39 28 0 31 0 21 0 15 0 23
0 49 0 0 0 0 10 0 8 0 12 0 12 12 0 8 0 35 29 24 5 0 0 25 16 0 4 0 63 20 0 0 0 4 52 41 0 8 13 41 17 0 34 0 0 0 6 4 0 0 24 24 0 20 16 0 12 0 0 0 0 0 2 6
0 0 34 1 31 18 13 6 0 41 2 0 12 0 21 36 0 45 0 6 0 0 32 0 0 0 0 0 0 0 25 0 13 0 38 15 0 5 13 3 0 0 8 28 0 0 57 16 0 0 0 0 1 33 0 24 22 9 0 23 3 0 5 2
17 0 53 0 20 0 18 0 17 0 1 0 18 35 15 32 11 0 0 0 18 25 0 3 0 0 10 0 0 20 0 4 6 0 34 0 21 0 0 0 0 41 0 27 0 0 8 0 37 0 13 0 36 0 0 14 0 0 1 40 16 0 0 22
